<mxfile host="app.diagrams.net" modified="2024-01-18T18:12:44.118Z" agent="Mozilla/5.0 (Windows NT 10.0; Win64; x64) AppleWebKit/537.36 (KHTML, like Gecko) Chrome/120.0.0.0 Safari/537.36" etag="t1g2NQ-ErRPKOZpxDEVS" version="22.1.18" type="device">
  <diagram name="Page-1" id="BSbu1Kt3Bp4ArYt2ESW5">
    <mxGraphModel dx="1195" dy="650" grid="1" gridSize="10" guides="1" tooltips="1" connect="1" arrows="1" fold="1" page="1" pageScale="1" pageWidth="850" pageHeight="1100" math="0" shadow="0">
      <root>
        <mxCell id="0" />
        <mxCell id="1" parent="0" />
        <mxCell id="zdHg10XPLROxAjpq0C63-1" value="Cell" style="swimlane;fontStyle=1;align=center;verticalAlign=top;childLayout=stackLayout;horizontal=1;startSize=26;horizontalStack=0;resizeParent=1;resizeParentMax=0;resizeLast=0;collapsible=1;marginBottom=0;whiteSpace=wrap;html=1;" parent="1" vertex="1">
          <mxGeometry x="10" y="290" width="160" height="180" as="geometry" />
        </mxCell>
        <mxCell id="zdHg10XPLROxAjpq0C63-2" value="+ int[] Position&lt;br&gt;+ bool IsDiscovered&lt;br&gt;+ bool IsLive&lt;br&gt;+ int NumLiveNeighbors" style="text;strokeColor=none;fillColor=none;align=left;verticalAlign=top;spacingLeft=4;spacingRight=4;overflow=hidden;rotatable=0;points=[[0,0.5],[1,0.5]];portConstraint=eastwest;whiteSpace=wrap;html=1;" parent="zdHg10XPLROxAjpq0C63-1" vertex="1">
          <mxGeometry y="26" width="160" height="74" as="geometry" />
        </mxCell>
        <mxCell id="zdHg10XPLROxAjpq0C63-3" value="" style="line;strokeWidth=1;fillColor=none;align=left;verticalAlign=middle;spacingTop=-1;spacingLeft=3;spacingRight=3;rotatable=0;labelPosition=right;points=[];portConstraint=eastwest;strokeColor=inherit;" parent="zdHg10XPLROxAjpq0C63-1" vertex="1">
          <mxGeometry y="100" width="160" height="8" as="geometry" />
        </mxCell>
        <mxCell id="zdHg10XPLROxAjpq0C63-4" value="+ Cell(position, isDiscovered, isLive, numLiveNeighbors&lt;br&gt;+ Cell()" style="text;strokeColor=none;fillColor=none;align=left;verticalAlign=top;spacingLeft=4;spacingRight=4;overflow=hidden;rotatable=0;points=[[0,0.5],[1,0.5]];portConstraint=eastwest;whiteSpace=wrap;html=1;" parent="zdHg10XPLROxAjpq0C63-1" vertex="1">
          <mxGeometry y="108" width="160" height="72" as="geometry" />
        </mxCell>
        <mxCell id="zdHg10XPLROxAjpq0C63-5" value="Board" style="swimlane;fontStyle=1;align=center;verticalAlign=top;childLayout=stackLayout;horizontal=1;startSize=26;horizontalStack=0;resizeParent=1;resizeParentMax=0;resizeLast=0;collapsible=1;marginBottom=0;whiteSpace=wrap;html=1;" parent="1" vertex="1">
          <mxGeometry x="10" y="10" width="160" height="200" as="geometry" />
        </mxCell>
        <mxCell id="zdHg10XPLROxAjpq0C63-6" value="+ int Size&lt;br&gt;+ Cell[ , ] CellGrid&lt;br&gt;+ int Difficulty" style="text;strokeColor=none;fillColor=none;align=left;verticalAlign=top;spacingLeft=4;spacingRight=4;overflow=hidden;rotatable=0;points=[[0,0.5],[1,0.5]];portConstraint=eastwest;whiteSpace=wrap;html=1;" parent="zdHg10XPLROxAjpq0C63-5" vertex="1">
          <mxGeometry y="26" width="160" height="64" as="geometry" />
        </mxCell>
        <mxCell id="zdHg10XPLROxAjpq0C63-7" value="" style="line;strokeWidth=1;fillColor=none;align=left;verticalAlign=middle;spacingTop=-1;spacingLeft=3;spacingRight=3;rotatable=0;labelPosition=right;points=[];portConstraint=eastwest;strokeColor=inherit;" parent="zdHg10XPLROxAjpq0C63-5" vertex="1">
          <mxGeometry y="90" width="160" height="8" as="geometry" />
        </mxCell>
        <mxCell id="zdHg10XPLROxAjpq0C63-8" value="+ Board(size)&lt;br&gt;- populateCellGrid()&lt;br&gt;+ setupLiveNeighbors()&lt;br&gt;+calculateLiveNeighbors()&lt;br&gt;- isValidCell()&lt;br&gt;+floodFill(int row, int col)" style="text;strokeColor=none;fillColor=none;align=left;verticalAlign=top;spacingLeft=4;spacingRight=4;overflow=hidden;rotatable=0;points=[[0,0.5],[1,0.5]];portConstraint=eastwest;whiteSpace=wrap;html=1;" parent="zdHg10XPLROxAjpq0C63-5" vertex="1">
          <mxGeometry y="98" width="160" height="102" as="geometry" />
        </mxCell>
        <mxCell id="zdHg10XPLROxAjpq0C63-9" value="" style="endArrow=block;startArrow=block;endFill=1;startFill=1;html=1;rounded=0;entryX=0.5;entryY=0;entryDx=0;entryDy=0;exitX=0.506;exitY=1.01;exitDx=0;exitDy=0;exitPerimeter=0;" parent="1" source="zdHg10XPLROxAjpq0C63-8" target="zdHg10XPLROxAjpq0C63-1" edge="1">
          <mxGeometry width="160" relative="1" as="geometry">
            <mxPoint x="-80" y="230" as="sourcePoint" />
            <mxPoint x="80" y="230" as="targetPoint" />
          </mxGeometry>
        </mxCell>
        <mxCell id="yqU5PkYykn4ZgmOeakdb-3" style="edgeStyle=orthogonalEdgeStyle;rounded=0;orthogonalLoop=1;jettySize=auto;html=1;entryX=0.5;entryY=0;entryDx=0;entryDy=0;" parent="1" source="yqU5PkYykn4ZgmOeakdb-1" target="yqU5PkYykn4ZgmOeakdb-2" edge="1">
          <mxGeometry relative="1" as="geometry" />
        </mxCell>
        <mxCell id="yqU5PkYykn4ZgmOeakdb-1" value="Program Start" style="strokeWidth=2;html=1;shape=mxgraph.flowchart.start_1;whiteSpace=wrap;fillColor=#d5e8d4;strokeColor=#82b366;" parent="1" vertex="1">
          <mxGeometry x="375" y="40" width="100" height="60" as="geometry" />
        </mxCell>
        <mxCell id="yqU5PkYykn4ZgmOeakdb-2" value="Setup Game Board" style="rounded=1;whiteSpace=wrap;html=1;absoluteArcSize=1;arcSize=14;strokeWidth=2;fillColor=#fff2cc;strokeColor=#d6b656;" parent="1" vertex="1">
          <mxGeometry x="375" y="130" width="100" height="100" as="geometry" />
        </mxCell>
        <mxCell id="yqU5PkYykn4ZgmOeakdb-7" style="edgeStyle=orthogonalEdgeStyle;rounded=0;orthogonalLoop=1;jettySize=auto;html=1;entryX=0.5;entryY=0;entryDx=0;entryDy=0;" parent="1" source="yqU5PkYykn4ZgmOeakdb-4" target="yqU5PkYykn4ZgmOeakdb-6" edge="1">
          <mxGeometry relative="1" as="geometry" />
        </mxCell>
        <mxCell id="yqU5PkYykn4ZgmOeakdb-8" value="No" style="edgeLabel;html=1;align=center;verticalAlign=middle;resizable=0;points=[];" parent="yqU5PkYykn4ZgmOeakdb-7" vertex="1" connectable="0">
          <mxGeometry y="4" relative="1" as="geometry">
            <mxPoint as="offset" />
          </mxGeometry>
        </mxCell>
        <mxCell id="yqU5PkYykn4ZgmOeakdb-4" value="Is Player dead?" style="strokeWidth=2;html=1;shape=mxgraph.flowchart.decision;whiteSpace=wrap;fillColor=#f8cecc;strokeColor=#b85450;" parent="1" vertex="1">
          <mxGeometry x="375" y="270" width="100" height="100" as="geometry" />
        </mxCell>
        <mxCell id="yqU5PkYykn4ZgmOeakdb-5" style="edgeStyle=orthogonalEdgeStyle;rounded=0;orthogonalLoop=1;jettySize=auto;html=1;entryX=0.5;entryY=0;entryDx=0;entryDy=0;entryPerimeter=0;" parent="1" source="yqU5PkYykn4ZgmOeakdb-2" target="yqU5PkYykn4ZgmOeakdb-4" edge="1">
          <mxGeometry relative="1" as="geometry" />
        </mxCell>
        <mxCell id="yqU5PkYykn4ZgmOeakdb-6" value="Prompt User for Row and Col number" style="rounded=1;whiteSpace=wrap;html=1;absoluteArcSize=1;arcSize=14;strokeWidth=2;fillColor=#fff2cc;strokeColor=#d6b656;" parent="1" vertex="1">
          <mxGeometry x="375" y="420" width="100" height="100" as="geometry" />
        </mxCell>
        <mxCell id="yqU5PkYykn4ZgmOeakdb-11" style="edgeStyle=orthogonalEdgeStyle;rounded=0;orthogonalLoop=1;jettySize=auto;html=1;entryX=0;entryY=0.5;entryDx=0;entryDy=0;" parent="1" source="yqU5PkYykn4ZgmOeakdb-9" target="yqU5PkYykn4ZgmOeakdb-6" edge="1">
          <mxGeometry relative="1" as="geometry">
            <Array as="points">
              <mxPoint x="355" y="610" />
              <mxPoint x="355" y="470" />
            </Array>
          </mxGeometry>
        </mxCell>
        <mxCell id="yqU5PkYykn4ZgmOeakdb-12" value="Nope" style="edgeLabel;html=1;align=center;verticalAlign=middle;resizable=0;points=[];" parent="yqU5PkYykn4ZgmOeakdb-11" vertex="1" connectable="0">
          <mxGeometry x="-0.2" relative="1" as="geometry">
            <mxPoint as="offset" />
          </mxGeometry>
        </mxCell>
        <mxCell id="yqU5PkYykn4ZgmOeakdb-9" value="Input Valid?" style="strokeWidth=2;html=1;shape=mxgraph.flowchart.decision;whiteSpace=wrap;fillColor=#f8cecc;strokeColor=#b85450;" parent="1" vertex="1">
          <mxGeometry x="375" y="560" width="100" height="100" as="geometry" />
        </mxCell>
        <mxCell id="yqU5PkYykn4ZgmOeakdb-10" style="edgeStyle=orthogonalEdgeStyle;rounded=0;orthogonalLoop=1;jettySize=auto;html=1;entryX=0.5;entryY=0;entryDx=0;entryDy=0;entryPerimeter=0;" parent="1" source="yqU5PkYykn4ZgmOeakdb-6" target="yqU5PkYykn4ZgmOeakdb-9" edge="1">
          <mxGeometry relative="1" as="geometry" />
        </mxCell>
        <mxCell id="yqU5PkYykn4ZgmOeakdb-13" value="End Program" style="strokeWidth=2;html=1;shape=mxgraph.flowchart.terminator;whiteSpace=wrap;fillColor=#e1d5e7;strokeColor=#9673a6;" parent="1" vertex="1">
          <mxGeometry x="230" y="290" width="100" height="60" as="geometry" />
        </mxCell>
        <mxCell id="yqU5PkYykn4ZgmOeakdb-14" style="edgeStyle=orthogonalEdgeStyle;rounded=0;orthogonalLoop=1;jettySize=auto;html=1;entryX=1;entryY=0.5;entryDx=0;entryDy=0;entryPerimeter=0;" parent="1" source="yqU5PkYykn4ZgmOeakdb-4" target="yqU5PkYykn4ZgmOeakdb-13" edge="1">
          <mxGeometry relative="1" as="geometry" />
        </mxCell>
        <mxCell id="yqU5PkYykn4ZgmOeakdb-15" value="Yes" style="edgeLabel;html=1;align=center;verticalAlign=middle;resizable=0;points=[];" parent="yqU5PkYykn4ZgmOeakdb-14" vertex="1" connectable="0">
          <mxGeometry x="-0.0667" y="-1" relative="1" as="geometry">
            <mxPoint as="offset" />
          </mxGeometry>
        </mxCell>
        <mxCell id="yqU5PkYykn4ZgmOeakdb-20" value="is Cell a bomb?" style="strokeWidth=2;html=1;shape=mxgraph.flowchart.decision;whiteSpace=wrap;fillColor=#f8cecc;strokeColor=#b85450;" parent="1" vertex="1">
          <mxGeometry x="530" y="560" width="100" height="100" as="geometry" />
        </mxCell>
        <mxCell id="yqU5PkYykn4ZgmOeakdb-21" style="edgeStyle=orthogonalEdgeStyle;rounded=0;orthogonalLoop=1;jettySize=auto;html=1;entryX=0;entryY=0.5;entryDx=0;entryDy=0;entryPerimeter=0;" parent="1" source="yqU5PkYykn4ZgmOeakdb-9" target="yqU5PkYykn4ZgmOeakdb-20" edge="1">
          <mxGeometry relative="1" as="geometry" />
        </mxCell>
        <mxCell id="yqU5PkYykn4ZgmOeakdb-22" value="Yes" style="edgeLabel;html=1;align=center;verticalAlign=middle;resizable=0;points=[];" parent="yqU5PkYykn4ZgmOeakdb-21" vertex="1" connectable="0">
          <mxGeometry x="-0.2" y="-4" relative="1" as="geometry">
            <mxPoint as="offset" />
          </mxGeometry>
        </mxCell>
        <mxCell id="yqU5PkYykn4ZgmOeakdb-24" value="Print Failure Msg &amp;amp; Player Dead" style="strokeWidth=2;html=1;shape=mxgraph.flowchart.display;whiteSpace=wrap;fillColor=#dae8fc;strokeColor=#6c8ebf;" parent="1" vertex="1">
          <mxGeometry x="520" y="440" width="120" height="80" as="geometry" />
        </mxCell>
        <mxCell id="yqU5PkYykn4ZgmOeakdb-25" style="edgeStyle=orthogonalEdgeStyle;rounded=0;orthogonalLoop=1;jettySize=auto;html=1;entryX=0.5;entryY=1;entryDx=0;entryDy=0;entryPerimeter=0;" parent="1" source="yqU5PkYykn4ZgmOeakdb-20" target="yqU5PkYykn4ZgmOeakdb-24" edge="1">
          <mxGeometry relative="1" as="geometry" />
        </mxCell>
        <mxCell id="yqU5PkYykn4ZgmOeakdb-26" value="Yes" style="edgeLabel;html=1;align=center;verticalAlign=middle;resizable=0;points=[];" parent="yqU5PkYykn4ZgmOeakdb-25" vertex="1" connectable="0">
          <mxGeometry x="-0.25" y="-1" relative="1" as="geometry">
            <mxPoint as="offset" />
          </mxGeometry>
        </mxCell>
        <mxCell id="yqU5PkYykn4ZgmOeakdb-27" style="edgeStyle=orthogonalEdgeStyle;rounded=0;orthogonalLoop=1;jettySize=auto;html=1;entryX=1;entryY=0.5;entryDx=0;entryDy=0;entryPerimeter=0;" parent="1" source="yqU5PkYykn4ZgmOeakdb-24" target="yqU5PkYykn4ZgmOeakdb-4" edge="1">
          <mxGeometry relative="1" as="geometry">
            <Array as="points">
              <mxPoint x="580" y="320" />
            </Array>
          </mxGeometry>
        </mxCell>
        <mxCell id="yqU5PkYykn4ZgmOeakdb-29" value="Was Cell the last Safe Cell?" style="strokeWidth=2;html=1;shape=mxgraph.flowchart.decision;whiteSpace=wrap;fontSize=12;fillColor=#f8cecc;strokeColor=#b85450;" parent="1" vertex="1">
          <mxGeometry x="680" y="560" width="100" height="100" as="geometry" />
        </mxCell>
        <mxCell id="yqU5PkYykn4ZgmOeakdb-30" style="edgeStyle=orthogonalEdgeStyle;rounded=0;orthogonalLoop=1;jettySize=auto;html=1;entryX=0;entryY=0.5;entryDx=0;entryDy=0;entryPerimeter=0;" parent="1" source="yqU5PkYykn4ZgmOeakdb-20" target="yqU5PkYykn4ZgmOeakdb-29" edge="1">
          <mxGeometry relative="1" as="geometry" />
        </mxCell>
        <mxCell id="yqU5PkYykn4ZgmOeakdb-31" value="No" style="edgeLabel;html=1;align=center;verticalAlign=middle;resizable=0;points=[];" parent="yqU5PkYykn4ZgmOeakdb-30" vertex="1" connectable="0">
          <mxGeometry x="-0.2" relative="1" as="geometry">
            <mxPoint as="offset" />
          </mxGeometry>
        </mxCell>
        <mxCell id="yqU5PkYykn4ZgmOeakdb-39" value="Print Success Msg" style="strokeWidth=2;html=1;shape=mxgraph.flowchart.display;whiteSpace=wrap;fillColor=#dae8fc;strokeColor=#6c8ebf;" parent="1" vertex="1">
          <mxGeometry x="670" y="740" width="120" height="80" as="geometry" />
        </mxCell>
        <mxCell id="yqU5PkYykn4ZgmOeakdb-40" value="End Program" style="strokeWidth=2;html=1;shape=mxgraph.flowchart.terminator;whiteSpace=wrap;fillColor=#e1d5e7;strokeColor=#9673a6;" parent="1" vertex="1">
          <mxGeometry x="680" y="870" width="100" height="60" as="geometry" />
        </mxCell>
        <mxCell id="yqU5PkYykn4ZgmOeakdb-41" style="edgeStyle=orthogonalEdgeStyle;rounded=0;orthogonalLoop=1;jettySize=auto;html=1;entryX=1;entryY=0.5;entryDx=0;entryDy=0;entryPerimeter=0;" parent="1" source="yqU5PkYykn4ZgmOeakdb-29" target="yqU5PkYykn4ZgmOeakdb-4" edge="1">
          <mxGeometry relative="1" as="geometry">
            <Array as="points">
              <mxPoint x="730" y="320" />
            </Array>
          </mxGeometry>
        </mxCell>
        <mxCell id="yqU5PkYykn4ZgmOeakdb-42" value="No" style="edgeLabel;html=1;align=center;verticalAlign=middle;resizable=0;points=[];" parent="yqU5PkYykn4ZgmOeakdb-41" vertex="1" connectable="0">
          <mxGeometry x="-0.4909" y="4" relative="1" as="geometry">
            <mxPoint as="offset" />
          </mxGeometry>
        </mxCell>
        <mxCell id="yqU5PkYykn4ZgmOeakdb-43" style="edgeStyle=orthogonalEdgeStyle;rounded=0;orthogonalLoop=1;jettySize=auto;html=1;entryX=0.5;entryY=0;entryDx=0;entryDy=0;entryPerimeter=0;" parent="1" source="yqU5PkYykn4ZgmOeakdb-29" target="yqU5PkYykn4ZgmOeakdb-39" edge="1">
          <mxGeometry relative="1" as="geometry" />
        </mxCell>
        <mxCell id="yqU5PkYykn4ZgmOeakdb-44" value="Yes" style="edgeLabel;html=1;align=center;verticalAlign=middle;resizable=0;points=[];" parent="yqU5PkYykn4ZgmOeakdb-43" vertex="1" connectable="0">
          <mxGeometry x="-0.025" y="1" relative="1" as="geometry">
            <mxPoint as="offset" />
          </mxGeometry>
        </mxCell>
        <mxCell id="yqU5PkYykn4ZgmOeakdb-45" style="edgeStyle=orthogonalEdgeStyle;rounded=0;orthogonalLoop=1;jettySize=auto;html=1;exitX=0.5;exitY=1;exitDx=0;exitDy=0;exitPerimeter=0;entryX=0.5;entryY=0;entryDx=0;entryDy=0;entryPerimeter=0;" parent="1" source="yqU5PkYykn4ZgmOeakdb-39" target="yqU5PkYykn4ZgmOeakdb-40" edge="1">
          <mxGeometry relative="1" as="geometry" />
        </mxCell>
        <mxCell id="OQh7WaE3bA69D_286-GN-1" value="Program Flowchart" style="text;html=1;strokeColor=none;fillColor=none;align=center;verticalAlign=middle;whiteSpace=wrap;rounded=0;" vertex="1" parent="1">
          <mxGeometry x="395" width="60" height="30" as="geometry" />
        </mxCell>
        <mxCell id="OQh7WaE3bA69D_286-GN-4" style="edgeStyle=orthogonalEdgeStyle;rounded=0;orthogonalLoop=1;jettySize=auto;html=1;entryX=0.5;entryY=0;entryDx=0;entryDy=0;" edge="1" parent="1" source="OQh7WaE3bA69D_286-GN-2" target="OQh7WaE3bA69D_286-GN-3">
          <mxGeometry relative="1" as="geometry" />
        </mxCell>
        <mxCell id="OQh7WaE3bA69D_286-GN-2" value="Function Start" style="strokeWidth=2;html=1;shape=mxgraph.flowchart.start_1;whiteSpace=wrap;fillColor=#d5e8d4;strokeColor=#82b366;" vertex="1" parent="1">
          <mxGeometry x="875" y="40" width="100" height="60" as="geometry" />
        </mxCell>
        <mxCell id="OQh7WaE3bA69D_286-GN-3" value="Create ArrayList to hold Surrounding Cells" style="rounded=1;whiteSpace=wrap;html=1;absoluteArcSize=1;arcSize=14;strokeWidth=2;fillColor=#ffe6cc;strokeColor=#d79b00;" vertex="1" parent="1">
          <mxGeometry x="875" y="130" width="100" height="100" as="geometry" />
        </mxCell>
        <mxCell id="OQh7WaE3bA69D_286-GN-8" style="edgeStyle=orthogonalEdgeStyle;rounded=0;orthogonalLoop=1;jettySize=auto;html=1;" edge="1" parent="1" source="OQh7WaE3bA69D_286-GN-5" target="OQh7WaE3bA69D_286-GN-7">
          <mxGeometry relative="1" as="geometry" />
        </mxCell>
        <mxCell id="OQh7WaE3bA69D_286-GN-9" value="Yes" style="edgeLabel;html=1;align=center;verticalAlign=middle;resizable=0;points=[];" vertex="1" connectable="0" parent="OQh7WaE3bA69D_286-GN-8">
          <mxGeometry x="-0.0408" relative="1" as="geometry">
            <mxPoint as="offset" />
          </mxGeometry>
        </mxCell>
        <mxCell id="OQh7WaE3bA69D_286-GN-11" style="edgeStyle=orthogonalEdgeStyle;rounded=0;orthogonalLoop=1;jettySize=auto;html=1;entryX=0.5;entryY=0;entryDx=0;entryDy=0;" edge="1" parent="1" source="OQh7WaE3bA69D_286-GN-5" target="OQh7WaE3bA69D_286-GN-10">
          <mxGeometry relative="1" as="geometry" />
        </mxCell>
        <mxCell id="OQh7WaE3bA69D_286-GN-12" value="No" style="edgeLabel;html=1;align=center;verticalAlign=middle;resizable=0;points=[];" vertex="1" connectable="0" parent="OQh7WaE3bA69D_286-GN-11">
          <mxGeometry x="-0.1667" y="3" relative="1" as="geometry">
            <mxPoint as="offset" />
          </mxGeometry>
        </mxCell>
        <mxCell id="OQh7WaE3bA69D_286-GN-5" value="Selected Cell has&lt;br&gt;Live Neighbors?" style="strokeWidth=2;html=1;shape=mxgraph.flowchart.decision;whiteSpace=wrap;fillColor=#f8cecc;strokeColor=#b85450;" vertex="1" parent="1">
          <mxGeometry x="860" y="260" width="130" height="120" as="geometry" />
        </mxCell>
        <mxCell id="OQh7WaE3bA69D_286-GN-6" style="edgeStyle=orthogonalEdgeStyle;rounded=0;orthogonalLoop=1;jettySize=auto;html=1;entryX=0.5;entryY=0;entryDx=0;entryDy=0;entryPerimeter=0;" edge="1" parent="1" source="OQh7WaE3bA69D_286-GN-3" target="OQh7WaE3bA69D_286-GN-5">
          <mxGeometry relative="1" as="geometry" />
        </mxCell>
        <mxCell id="OQh7WaE3bA69D_286-GN-7" value="Stop" style="strokeWidth=2;html=1;shape=mxgraph.flowchart.terminator;whiteSpace=wrap;fillColor=#e1d5e7;strokeColor=#9673a6;" vertex="1" parent="1">
          <mxGeometry x="1055" y="290" width="100" height="60" as="geometry" />
        </mxCell>
        <mxCell id="OQh7WaE3bA69D_286-GN-14" style="edgeStyle=orthogonalEdgeStyle;rounded=0;orthogonalLoop=1;jettySize=auto;html=1;entryX=0.5;entryY=0;entryDx=0;entryDy=0;" edge="1" parent="1" source="OQh7WaE3bA69D_286-GN-10" target="OQh7WaE3bA69D_286-GN-13">
          <mxGeometry relative="1" as="geometry" />
        </mxCell>
        <mxCell id="OQh7WaE3bA69D_286-GN-10" value="Get all Surrounding Cells (top, left, right, bottom)" style="rounded=1;whiteSpace=wrap;html=1;absoluteArcSize=1;arcSize=14;strokeWidth=2;fillColor=#ffe6cc;strokeColor=#d79b00;" vertex="1" parent="1">
          <mxGeometry x="875" y="420" width="100" height="100" as="geometry" />
        </mxCell>
        <mxCell id="OQh7WaE3bA69D_286-GN-13" value="For each surrounding cell, if cell has not been visited..." style="rounded=1;whiteSpace=wrap;html=1;absoluteArcSize=1;arcSize=14;strokeWidth=2;fillColor=#ffe6cc;strokeColor=#d79b00;" vertex="1" parent="1">
          <mxGeometry x="875" y="560" width="100" height="100" as="geometry" />
        </mxCell>
        <mxCell id="OQh7WaE3bA69D_286-GN-15" style="edgeStyle=orthogonalEdgeStyle;rounded=0;orthogonalLoop=1;jettySize=auto;html=1;entryX=1;entryY=0.5;entryDx=0;entryDy=0;entryPerimeter=0;" edge="1" parent="1" source="OQh7WaE3bA69D_286-GN-13" target="OQh7WaE3bA69D_286-GN-2">
          <mxGeometry relative="1" as="geometry">
            <Array as="points">
              <mxPoint x="1175" y="610" />
              <mxPoint x="1175" y="70" />
            </Array>
          </mxGeometry>
        </mxCell>
        <mxCell id="OQh7WaE3bA69D_286-GN-16" value="Recursion Function" style="text;html=1;strokeColor=none;fillColor=none;align=center;verticalAlign=middle;whiteSpace=wrap;rounded=0;" vertex="1" parent="1">
          <mxGeometry x="895" width="60" height="30" as="geometry" />
        </mxCell>
      </root>
    </mxGraphModel>
  </diagram>
</mxfile>
